<?xml version="1.0" encoding="utf-8"?>
<!-- Generator: Adobe Illustrator 24.1.0, SVG Export Plug-In . SVG Version: 6.00 Build 0)  -->
<svg version="1.1" id="katman_1" xmlns="http://www.w3.org/2000/svg" xmlns:xlink="http://www.w3.org/1999/xlink" x="0px" y="0px"
	 viewBox="0 0 217.3 70.6" style="enable-background:new 0 0 217.3 70.6;" xml:space="preserve">
<style type="text/css">
	.st0{fill:#1D1D1B;}
	.st1{fill:none;}
</style>
<polygon class="st0" points="0.9,53.9 0.9,31.7 13.1,31.7 13.1,34 3.5,34 3.5,40.6 12.8,40.6 12.8,42.9 3.5,42.9 3.5,51.6 
	13.1,51.6 13.1,53.9 "/>
<polygon class="st0" points="17,53.9 17,30.8 35.3,48.9 35.3,31.7 38,31.7 38,54.9 19.7,36.8 19.7,53.9 "/>
<path class="st0" d="M54.3,42.7H64c0.1,1.4-0.1,2.8-0.4,4.2c-0.4,1.4-1.2,2.8-2.2,3.8c-1,1.1-2.3,2-3.7,2.6c-1.5,0.6-3.1,1-4.8,1
	c-3.2,0.1-6.3-1.2-8.5-3.4c-4.5-4.1-4.8-11.1-0.6-15.6c0.2-0.2,0.4-0.4,0.6-0.6c5.2-4.8,13.2-4.5,18,0.7c0.2,0.2,0.4,0.5,0.6,0.7
	l-1.9,1.7c-1.8-2.6-4.9-4.2-8.1-4.2c-2.5-0.1-5,0.9-6.8,2.7c-1.8,1.7-2.8,4.1-2.8,6.5c0,2.4,1,4.7,2.7,6.3c1.8,1.8,4.2,2.8,6.7,2.8
	c2.1,0,4.1-0.6,5.7-1.9c1.7-1.1,2.6-3,2.7-5h-7L54.3,42.7z"/>
<polygon class="st0" points="69.7,31.7 69.7,51.6 76.2,51.6 76.2,53.9 67.1,53.9 67.1,31.7 "/>
<rect x="78.2" y="31.7" class="st0" width="2.6" height="22.2"/>
<path class="st0" d="M97.7,34.8L95.6,36c-0.8-1.5-2.3-2.4-4-2.4c-1,0-2,0.3-2.7,0.9c-0.8,0.6-1.2,1.5-1.2,2.5c0,0.9,0.5,1.7,1.2,2.2
	c0.8,0.5,1.6,0.9,2.4,1.3l1.6,0.6c1.4,0.5,2.8,1.3,3.9,2.3c1.1,1,1.7,2.5,1.7,4c0,1.9-0.7,3.7-2.1,4.9c-2.8,2.5-7,2.6-10,0.4
	c-1.3-1.1-2.2-2.5-2.5-4.2l2.6-0.7c0.1,1.1,0.7,2.2,1.6,3c0.9,0.8,2,1.2,3.1,1.2c1.2,0,2.4-0.4,3.4-1.2c0.9-0.8,1.5-1.9,1.4-3.1
	c0-1.1-0.5-2.1-1.3-2.8c-0.9-0.7-1.9-1.2-3-1.6l-1.4-0.6c-1.3-0.5-2.5-1.2-3.6-2.1c-1-0.9-1.5-2.2-1.5-3.6c0-1.6,0.7-3.1,2-4.1
	c1.3-1,2.9-1.6,4.6-1.5C94.2,31.2,96.5,32.6,97.7,34.8"/>
<polygon class="st0" points="104.4,40.7 116.5,40.7 116.5,31.7 119.1,31.7 119.1,53.9 116.5,53.9 116.5,43 104.4,43 104.4,53.9 
	101.8,53.9 101.8,31.7 104.4,31.7 "/>
<polygon class="st0" points="156.4,36.6 156.4,53.9 150.3,53.9 150.3,36.6 145.2,36.6 145.2,31.7 161.4,31.7 161.4,36.6 "/>
<rect x="163" y="31.7" class="st0" width="6.1" height="22.2"/>
<polygon class="st0" points="171,53.9 175,31.7 181,31.7 185.8,43.6 190.8,31.7 196.9,31.7 200.4,53.9 194.4,53.9 192.6,41.1 
	192.6,41.1 186.9,53.9 184.5,53.9 179.1,41.1 179.1,41.1 177.1,53.9 "/>
<polygon class="st0" points="215.8,36.6 208.5,36.6 208.5,40.3 215.4,40.3 215.4,45.2 208.5,45.2 208.5,49 215.8,49 215.8,53.9 
	202.4,53.9 202.4,31.7 215.8,31.7 "/>
<rect x="127.1" y="39.6" width="11.5" height="0.4"/>
<polygon points="136.3,48.6 135.6,48.6 135.6,54.1 135,54.1 135,48.6 134.4,48.6 134.4,54.1 131.4,54.1 131.4,48.6 130.7,48.6 
	130.7,54.1 130.1,54.1 130.1,48.6 129.5,48.6 129.5,54.1 127.1,54.1 127.1,54.7 138.6,54.7 138.6,54.1 136.3,54.1 "/>
<rect x="127.1" y="48.6" width="0.4" height="4.9"/>
<rect x="127.9" y="48.6" width="0.4" height="4.9"/>
<rect x="128.6" y="48.6" width="0.4" height="4.9"/>
<rect x="131.9" y="48.6" width="0.4" height="4.9"/>
<rect x="132.6" y="48.6" width="0.4" height="4.9"/>
<rect x="133.4" y="48.6" width="0.4" height="4.9"/>
<rect x="136.7" y="48.6" width="0.4" height="4.9"/>
<rect x="137.4" y="48.6" width="0.4" height="4.9"/>
<rect x="138.2" y="48.6" width="0.4" height="4.9"/>
<rect x="127.1" y="40.6" width="0.4" height="5.4"/>
<rect x="127.9" y="40.6" width="0.4" height="5.4"/>
<rect x="128.6" y="40.6" width="0.4" height="5.4"/>
<rect x="131.9" y="40.6" width="0.4" height="5.4"/>
<rect x="132.6" y="40.6" width="0.4" height="5.4"/>
<rect x="133.4" y="40.6" width="0.4" height="5.4"/>
<polygon points="127.1,47.2 138.6,47.2 138.6,46.6 136.3,46.6 136.3,40.6 135.6,40.6 135.6,46.6 135,46.6 135,40.6 134.4,40.6 
	134.4,46.6 131.4,46.6 131.4,40.6 130.7,40.6 130.7,46.6 130.1,46.6 130.1,40.6 129.5,40.6 129.5,46.6 127.1,46.6 "/>
<rect x="136.7" y="40.6" width="0.4" height="5.4"/>
<rect x="137.4" y="40.6" width="0.4" height="5.4"/>
<rect x="138.2" y="40.6" width="0.4" height="5.4"/>
<rect x="127.1" y="47.7" width="11.5" height="0.4"/>
<polygon points="125.6,39.2 125.9,39.2 125.9,54.7 126.6,54.7 126.6,39.2 139.4,39.2 139.4,54.7 140,54.7 140,39.2 140.2,39.2 
	140.2,38.6 125.6,38.6 "/>
<rect x="125.6" y="37.4" width="14.6" height="0.6"/>
<rect x="127.3" y="36.7" width="11.2" height="0.4"/>
<rect x="125.9" y="35.6" width="0.6" height="1.3"/>
<rect x="139.2" y="35.6" width="0.6" height="1.3"/>
<polygon points="125.6,35.1 128.8,35.1 128.8,36.5 129.5,36.5 129.5,35.1 131.3,35.1 131.3,36.5 131.9,36.5 131.9,35.1 133.8,35.1 
	133.8,36.5 134.4,36.5 134.4,35.1 136.3,35.1 136.3,36.5 136.9,36.5 136.9,35.1 140.2,35.1 140.2,34.5 125.6,34.5 "/>
<rect x="138.6" y="28.2" width="0.4" height="5.6"/>
<rect x="139.3" y="28.2" width="0.7" height="5.6"/>
<rect x="137.6" y="28.2" width="0.7" height="5.6"/>
<rect x="126.8" y="28.2" width="0.4" height="5.6"/>
<rect x="127.4" y="28.2" width="0.7" height="5.6"/>
<rect x="125.8" y="28.2" width="0.7" height="5.6"/>
<path d="M135.7,12.7l-2.5-7V2.9h-0.7v2.7l-2.6,7v0.5h5.7V12.7z"/>
<rect x="130.2" y="13.5" width="5.4" height="0.6"/>
<rect x="130.2" y="14.5" width="5.4" height="0.6"/>
<rect x="130.1" y="15.5" width="0.6" height="0.8"/>
<rect x="131.1" y="15.5" width="0.6" height="0.8"/>
<rect x="132.1" y="15.5" width="0.6" height="0.8"/>
<rect x="133.1" y="15.5" width="0.6" height="0.8"/>
<rect x="134.1" y="15.5" width="0.6" height="0.8"/>
<rect x="135" y="15.5" width="0.6" height="0.8"/>
<path d="M135.6,17.1v-0.6h-5.4v0.6L135.6,17.1z"/>
<polygon points="138.7,22.1 127,22.1 127,22.7 138.7,22.7 "/>
<path d="M138.2,21c-0.6-1.3-1.3-2.1-1.9-3.4h-6.9c-0.7,1.3-1.3,2.1-1.9,3.4v0.7h10.7L138.2,21z"/>
<polygon points="127.6,26.1 138.2,26.1 138.8,26.1 138.8,25.5 138.8,23.2 138.2,23.2 138.2,25.5 127.6,25.5 127.6,23.2 126.9,23.2 
	126.9,26.1 127.2,26.1 "/>
<polygon points="136.5,25.2 136.5,23.9 137.1,23.9 137.1,23.3 128.7,23.3 128.7,23.9 129.2,23.9 129.2,25.2 129.9,25.2 129.9,23.9 
	130.3,23.9 130.3,25.2 131,25.2 131,23.9 131.4,23.9 131.4,25.2 132.1,25.2 132.1,23.9 132.5,23.9 132.5,25.2 133.2,25.2 
	133.2,23.9 133.6,23.9 133.6,25.2 134.3,25.2 134.3,23.9 134.8,23.9 134.8,25.2 135.4,25.2 135.4,23.9 135.9,23.9 135.9,25.2 "/>
<rect x="137.6" y="26.6" width="2.7" height="0.6"/>
<rect x="125.4" y="26.6" width="2.7" height="0.6"/>
<path class="st1" d="M136.3,27h-6.9v6.5h6.9V27z M136.1,33.3h-6.4v-6h6.4V33.3z"/>
<path class="st1" d="M132.9,33c1.5,0,2.7-1.2,2.7-2.7s-1.2-2.7-2.7-2.7c-1.5,0-2.7,1.2-2.7,2.7S131.4,33,132.9,33L132.9,33z
	 M131.7,32.6l-0.4-0.2l0.6-1l0.4,0.2L131.7,32.6z M132.7,32.9v-1.2h0.4v1.1L132.7,32.9z M134,32.6l-0.6-1l0.4-0.2l0.6,1L134,32.6z
	 M135,31.7l-1-0.6l0.2-0.4l1,0.6L135,31.7z M135.4,30.4h-1.1V30h1.1V30.4z M135,28.8l0.2,0.4l-1,0.6l-0.2-0.4L135,28.8z M134,27.9
	l0.4,0.2l-0.6,1l-0.4-0.2L134,27.9z M132.7,27.6h0.4v1.1h-0.4V27.6z M130.7,28.8l1,0.6l-0.2,0.4l-1-0.6L130.7,28.8z M130.3,30.1h1.1
	h1.2L132,29l0,0l-0.6-1l0.4-0.2l0.6,1l0,0l0.9,1.4c0,0,0,0.1,0,0.1l0,0l0,0c0,0.1,0,0.1-0.1,0.1l0,0h-0.1c0,0-0.1,0-0.1,0h-1.6h-1
	L130.3,30.1z M130.5,31.4l1-0.6l0.2,0.4l-1,0.6L130.5,31.4z"/>
<rect x="132.7" y="27.6" width="0.4" height="1.1"/>
<rect x="133.3" y="28.3" transform="matrix(0.5027 -0.8645 0.8645 0.5027 41.9827 129.898)" width="1.1" height="0.4"/>
<rect x="134.1" y="29" transform="matrix(0.862 -0.5069 0.5069 0.862 3.7788 72.2803)" width="1.1" height="0.4"/>
<rect x="134.4" y="30.7" transform="matrix(0.5005 -0.8658 0.8658 0.5005 40.1959 132.1903)" width="0.4" height="1.1"/>
<rect x="133.4" y="30.8" transform="matrix(0.8601 -0.5101 0.5101 0.8601 2.7228 72.5538)" width="0.4" height="1.1"/>
<rect x="132.7" y="31.7" transform="matrix(1 -2.443451e-03 2.443451e-03 1 -7.849096e-02 0.3248)" width="0.4" height="1.1"/>
<rect x="131.3" y="31.8" transform="matrix(0.4959 -0.8684 0.8684 0.4959 38.6742 130.6364)" width="1.1" height="0.4"/>
<rect x="130.5" y="31" transform="matrix(0.8592 -0.5116 0.5116 0.8592 2.4747 71.4669)" width="1.1" height="0.4"/>
<rect x="130.9" y="28.6" transform="matrix(0.5102 -0.86 0.86 0.5102 39.0829 127.048)" width="0.4" height="1.1"/>
<rect x="134.4" y="30" width="1.1" height="0.4"/>
<path d="M132.8,30.5c0,0,0.1,0,0.1,0h0.1c0.1,0,0.1,0,0.1-0.1c0,0,0,0,0,0l0,0l0,0c0,0,0-0.1,0-0.1l-0.9-1.4l0,0l-0.6-1l-0.4,0.2
	l0.6,1l0,0l0.6,1h-1.2h-1.1v0.4h1L132.8,30.5z"/>
<path d="M129.7,33.2h6.4v-6h-6.4V33.2z M132.9,27.5c1.5,0,2.7,1.2,2.7,2.7s-1.2,2.7-2.7,2.7c-1.5,0-2.7-1.2-2.7-2.7
	S131.4,27.5,132.9,27.5C132.9,27.5,132.9,27.5,132.9,27.5z"/>
<path d="M128.8,34h8v-7.6h-8V34z M129.4,27h6.9v6.5h-6.9V27z"/>
<g>
	<polygon class="st0" points="2.5,57.9 1.1,57.9 1.1,66.4 5.3,66.4 5.3,65 2.5,65 	"/>
	<path class="st0" d="M7.9,57.9l-2.4,8.5h1.3l0.5-1.8H10l0.5,1.8h1.4l-2.3-8.5H7.9z M7.7,63.2l1-3.6h0l0.9,3.6H7.7z"/>
	<polygon class="st0" points="17.1,64.6 17.1,64.6 14.6,57.9 12.5,57.9 12.5,66.4 13.9,66.4 13.9,59.4 13.9,59.3 16.5,66.4 
		18.5,66.4 18.5,57.9 17.1,57.9 	"/>
	<path class="st0" d="M22.6,59.1c0.9,0,1.3,0.5,1.3,1.4h1.5c0-1.8-1-2.8-3.1-2.8c-0.8,0-1.5,0.3-2,0.9c-0.7,0.8-1.1,2-1.1,3.5
		c0,1.5,0.4,2.7,1.1,3.5c0.6,0.6,1.2,0.9,2,0.9c0.5,0,1,0,1.5-0.1c0.5-0.1,1-0.2,1.5-0.4v-4.3h-2.7v1.4H24v1.8
		c-0.5,0.1-0.9,0.2-1.3,0.2c-0.6,0-1.1-0.3-1.4-0.8c-0.3-0.5-0.5-1.3-0.5-2.3c0-1,0.2-1.7,0.5-2.3C21.6,59.3,22,59.1,22.6,59.1z"/>
	<path class="st0" d="M30.9,62.5c0,0.9-0.1,1.5-0.2,1.9c-0.2,0.6-0.6,0.8-1.2,0.8c-0.6,0-1-0.3-1.2-0.8c-0.1-0.4-0.2-1-0.2-1.9v-4.6
		h-1.4v5.3c0,1.1,0.3,1.9,0.8,2.5c0.5,0.6,1.2,0.8,2,0.8c0.8,0,1.5-0.3,2-0.8c0.5-0.6,0.8-1.4,0.8-2.5v-5.3h-1.4V62.5z"/>
	<path class="st0" d="M35.5,57.9l-2.4,8.5h1.3l0.5-1.8h2.6l0.5,1.8h1.4l-2.3-8.5H35.5z M35.3,63.2l1-3.6h0l0.9,3.6H35.3z"/>
	<path class="st0" d="M43.2,59.1c0.9,0,1.3,0.5,1.3,1.4H46c0-1.8-1-2.8-3.1-2.8c-0.8,0-1.5,0.3-2,0.9c-0.7,0.8-1.1,2-1.1,3.5
		c0,1.5,0.3,2.7,1.1,3.5c0.6,0.6,1.2,0.9,2,0.9c0.5,0,1,0,1.5-0.1c0.5-0.1,1-0.2,1.5-0.4v-4.3h-2.7v1.4h1.3v1.8
		c-0.5,0.1-0.9,0.2-1.3,0.2c-0.6,0-1.1-0.3-1.4-0.8c-0.3-0.5-0.5-1.3-0.5-2.3c0-1,0.2-1.7,0.5-2.3C42.1,59.3,42.6,59.1,43.2,59.1z"
		/>
	<polygon class="st0" points="48.5,62.7 51.3,62.7 51.3,61.3 48.5,61.3 48.5,59.3 51.4,59.3 51.4,57.9 47.1,57.9 47.1,66.4 
		51.5,66.4 51.5,65 48.5,65 	"/>
	<path class="st0" d="M59.3,62c-0.3-0.2-0.8-0.4-1.6-0.7c-0.4-0.1-0.7-0.2-0.8-0.3c-0.3-0.2-0.4-0.5-0.4-0.9c0-0.3,0.1-0.6,0.3-0.8
		c0.2-0.2,0.4-0.3,0.7-0.3c0.7,0,1,0.4,1.1,1.3H60c0-0.8-0.2-1.5-0.7-1.9c-0.4-0.4-0.9-0.7-1.6-0.7c-0.7,0-1.4,0.2-1.9,0.7
		c-0.6,0.5-0.9,1.2-0.9,2.1c0,0.7,0.2,1.2,0.7,1.6c0.3,0.3,0.8,0.5,1.4,0.7c0.6,0.2,0.9,0.3,1,0.3c0.4,0.2,0.5,0.5,0.5,0.9
		c0,0.4-0.1,0.7-0.4,0.9c-0.2,0.1-0.5,0.2-0.9,0.2c-0.4,0-0.6-0.1-0.8-0.4c-0.2-0.3-0.3-0.7-0.3-1.2h-1.4c0,1.9,0.8,2.9,2.5,2.9
		c0.8,0,1.4-0.2,1.9-0.6c0.6-0.5,0.9-1.2,0.9-2.2C60.2,63,59.9,62.4,59.3,62z"/>
	<path class="st0" d="M63.6,59.1c0.4,0,0.7,0.2,0.9,0.5c0.2,0.3,0.3,0.7,0.3,1.2h1.5c0-1-0.3-1.8-0.8-2.3c-0.5-0.4-1.1-0.7-1.9-0.7
		c-0.9,0-1.6,0.4-2.1,1.3c-0.4,0.8-0.7,1.8-0.7,3.1c0,1.3,0.2,2.4,0.7,3.1c0.5,0.9,1.2,1.3,2.1,1.3c0.8,0,1.5-0.2,1.9-0.7
		c0.5-0.5,0.8-1.2,0.8-2.3h-1.5c0,0.5-0.1,0.9-0.3,1.1c-0.2,0.3-0.5,0.5-0.9,0.5c-0.4,0-0.8-0.4-1-1.1c-0.2-0.6-0.3-1.2-0.3-2
		c0-0.8,0.1-1.4,0.3-2C62.8,59.4,63.1,59.1,63.6,59.1z"/>
	<polygon class="st0" points="71,61.3 68.6,61.3 68.6,57.9 67.2,57.9 67.2,66.4 68.6,66.4 68.6,62.7 71.1,62.7 71.1,66.4 72.5,66.4 
		72.5,57.9 71,57.9 	"/>
	<path class="st0" d="M76.6,57.7c-1,0-1.8,0.4-2.4,1.3c-0.5,0.8-0.8,1.8-0.8,3.2c0,1.3,0.3,2.4,0.8,3.2c0.5,0.9,1.3,1.3,2.4,1.3
		c1,0,1.8-0.4,2.4-1.3c0.5-0.8,0.8-1.8,0.8-3.2c0-1.3-0.3-2.4-0.8-3.2C78.4,58.2,77.6,57.7,76.6,57.7z M76.6,65.3
		c-1.1,0-1.7-1-1.7-3.1c0-2.1,0.6-3.1,1.7-3.1c1.1,0,1.7,1,1.7,3.1C78.2,64.2,77.7,65.3,76.6,65.3z"/>
	<path class="st0" d="M83.6,57.7c-1,0-1.8,0.4-2.4,1.3c-0.5,0.8-0.8,1.8-0.8,3.2c0,1.3,0.3,2.4,0.8,3.2c0.5,0.9,1.3,1.3,2.4,1.3
		c1,0,1.8-0.4,2.4-1.3c0.5-0.8,0.8-1.8,0.8-3.2c0-1.3-0.3-2.4-0.8-3.2C85.4,58.2,84.6,57.7,83.6,57.7z M83.6,65.3
		c-1.1,0-1.7-1-1.7-3.1c0-2.1,0.5-3.1,1.7-3.1c1.1,0,1.7,1,1.7,3.1C85.2,64.2,84.7,65.3,83.6,65.3z"/>
	<polygon class="st0" points="89.1,57.9 87.7,57.9 87.7,66.4 92,66.4 92,65 89.1,65 	"/>
	<path class="st0" d="M96.9,62c-0.3-0.2-0.8-0.4-1.6-0.7c-0.4-0.1-0.7-0.2-0.8-0.3c-0.3-0.2-0.4-0.5-0.4-0.9c0-0.3,0.1-0.6,0.3-0.8
		c0.2-0.2,0.4-0.3,0.7-0.3c0.7,0,1,0.4,1.1,1.3h1.4c0-0.8-0.2-1.5-0.7-1.9c-0.4-0.4-0.9-0.7-1.6-0.7c-0.7,0-1.4,0.2-1.9,0.7
		c-0.6,0.5-0.9,1.2-0.9,2.1c0,0.7,0.2,1.2,0.7,1.6c0.3,0.3,0.8,0.5,1.4,0.7c0.6,0.2,0.9,0.3,1,0.3c0.4,0.2,0.5,0.5,0.5,0.9
		c0,0.4-0.1,0.7-0.4,0.9c-0.2,0.1-0.5,0.2-0.9,0.2c-0.4,0-0.6-0.1-0.8-0.4c-0.2-0.3-0.3-0.7-0.3-1.2h-1.4c0,1.9,0.8,2.9,2.5,2.9
		c0.8,0,1.4-0.2,1.9-0.6c0.6-0.5,0.9-1.2,0.9-2.2C97.7,63,97.4,62.4,96.9,62z"/>
	<path class="st0" d="M108.4,62c0.1-0.4,0.1-0.7,0.1-0.9h-1.4c0,0.1,0,0.4,0,0.8c0,0.6-0.1,1.1-0.3,1.5l-1.3-1.7
		c0.4-0.2,0.7-0.5,0.9-0.9c0.3-0.4,0.4-0.8,0.4-1.3c0-0.6-0.2-1.1-0.7-1.4c-0.4-0.3-0.8-0.4-1.3-0.4c-0.5,0-1,0.1-1.3,0.4
		c-0.5,0.3-0.7,0.8-0.7,1.4c0,0.7,0.3,1.3,0.8,1.8c-0.9,0.8-1.4,1.7-1.4,2.7c0,0.8,0.3,1.5,0.9,1.9c0.5,0.4,1,0.6,1.7,0.6
		c0.4,0,0.7-0.1,1.1-0.2c0.4-0.2,0.7-0.4,1-0.7l0.5,0.8h1.7l-1.3-1.8C108,63.8,108.3,62.9,108.4,62z M104.2,59.1
		c0.1-0.1,0.3-0.2,0.5-0.2c0.5,0,0.7,0.2,0.7,0.7c0,0.4-0.2,0.8-0.7,1.2c-0.5-0.5-0.7-0.9-0.7-1.2C104,59.4,104.1,59.3,104.2,59.1z
		 M105.3,65.1c-0.2,0.1-0.5,0.2-0.6,0.2c-0.3,0-0.6-0.1-0.8-0.3c-0.2-0.2-0.3-0.6-0.3-0.9c0-0.6,0.2-1.1,0.6-1.5l1.7,2.3
		C105.8,64.9,105.6,65,105.3,65.1z"/>
	<path class="st0" d="M114.9,57.7c-1,0-1.8,0.4-2.4,1.3c-0.5,0.8-0.8,1.8-0.8,3.2c0,1.3,0.3,2.4,0.8,3.2c0.5,0.9,1.3,1.3,2.4,1.3
		c1,0,1.8-0.4,2.4-1.3c0.5-0.8,0.8-1.8,0.8-3.2c0-1.3-0.3-2.4-0.8-3.2C116.7,58.2,115.9,57.7,114.9,57.7z M114.9,65.3
		c-1.1,0-1.7-1-1.7-3.1c0-2.1,0.6-3.1,1.7-3.1c1.1,0,1.7,1,1.7,3.1C116.5,64.2,116,65.3,114.9,65.3z"/>
	<polygon class="st0" points="121.7,64.6 121.7,64.6 120,57.9 118.5,57.9 120.9,66.4 122.4,66.4 124.8,57.9 123.4,57.9 	"/>
	<polygon class="st0" points="126.8,62.7 129.6,62.7 129.6,61.3 126.8,61.3 126.8,59.3 129.8,59.3 129.8,57.9 125.4,57.9 
		125.4,66.4 129.9,66.4 129.9,65 126.8,65 	"/>
	<path class="st0" d="M135.8,64.4c-0.1-0.8-0.2-1.3-0.2-1.5c-0.2-0.4-0.5-0.6-1-0.7v0c0.4-0.1,0.7-0.4,1-0.7
		c0.2-0.4,0.4-0.8,0.4-1.4c0-0.8-0.2-1.4-0.7-1.8c-0.4-0.3-0.9-0.5-1.6-0.5h-2.8v8.5h1.4V63h1.5c0.3,0,0.5,0.4,0.6,1.1
		c0.1,1,0.2,1.8,0.2,2.3h1.6c-0.1-0.2-0.2-0.5-0.3-1C135.9,65.4,135.9,65,135.8,64.4z M133.5,61.6h-1.2v-2.3h1.2c0.7,0,1,0.4,1,1.1
		C134.5,61.2,134.2,61.6,133.5,61.6z"/>
	<path class="st0" d="M141.2,62c-0.3-0.2-0.8-0.4-1.6-0.7c-0.4-0.1-0.7-0.2-0.8-0.3c-0.3-0.2-0.4-0.5-0.4-0.9c0-0.3,0.1-0.6,0.3-0.8
		c0.2-0.2,0.4-0.3,0.7-0.3c0.7,0,1,0.4,1.1,1.3h1.4c0-0.8-0.2-1.5-0.7-1.9c-0.4-0.4-0.9-0.7-1.6-0.7c-0.7,0-1.4,0.2-1.9,0.7
		c-0.6,0.5-0.9,1.2-0.9,2.1c0,0.7,0.3,1.2,0.7,1.6c0.3,0.3,0.8,0.5,1.4,0.7c0.6,0.2,0.9,0.3,1,0.3c0.4,0.2,0.5,0.5,0.5,0.9
		c0,0.4-0.1,0.7-0.4,0.9c-0.2,0.1-0.5,0.2-0.9,0.2c-0.4,0-0.6-0.1-0.8-0.4c-0.2-0.3-0.3-0.7-0.3-1.2h-1.4c0,1.9,0.8,2.9,2.5,2.9
		c0.8,0,1.4-0.2,1.9-0.6c0.6-0.5,0.9-1.2,0.9-2.2C142,63,141.7,62.4,141.2,62z"/>
	<polygon class="st0" points="144.3,62.7 147.1,62.7 147.1,61.3 144.3,61.3 144.3,59.3 147.3,59.3 147.3,57.9 142.9,57.9 
		142.9,66.4 147.4,66.4 147.4,65 144.3,65 	"/>
	<path class="st0" d="M150.4,57.9l-2.4,8.5h1.3l0.5-1.8h2.6l0.5,1.8h1.4l-2.3-8.5H150.4z M150.2,63.2l1-3.6h0l0.9,3.6H150.2z"/>
	<path class="st0" d="M159.2,62c-0.3-0.2-0.8-0.4-1.6-0.7c-0.4-0.1-0.7-0.2-0.8-0.3c-0.3-0.2-0.4-0.5-0.4-0.9c0-0.3,0.1-0.6,0.3-0.8
		c0.2-0.2,0.4-0.3,0.7-0.3c0.7,0,1,0.4,1.1,1.3h1.4c0-0.8-0.2-1.5-0.7-1.9c-0.4-0.4-0.9-0.7-1.6-0.7c-0.7,0-1.4,0.2-1.9,0.7
		c-0.6,0.5-0.9,1.2-0.9,2.1c0,0.7,0.2,1.2,0.7,1.6c0.3,0.3,0.8,0.5,1.4,0.7c0.6,0.2,0.9,0.3,1,0.3c0.4,0.2,0.5,0.5,0.5,0.9
		c0,0.4-0.1,0.7-0.4,0.9c-0.2,0.1-0.5,0.2-0.9,0.2c-0.4,0-0.6-0.1-0.8-0.4c-0.2-0.3-0.3-0.7-0.3-1.2h-1.4c0,1.9,0.8,2.9,2.5,2.9
		c0.8,0,1.4-0.2,1.9-0.6c0.6-0.5,0.9-1.2,0.9-2.2C160.1,63,159.8,62.4,159.2,62z"/>
	<polygon class="st0" points="164.8,62.7 167.6,62.7 167.6,61.3 164.8,61.3 164.8,59.3 167.8,59.3 167.8,57.9 163.4,57.9 
		163.4,66.4 167.9,66.4 167.9,65 164.8,65 	"/>
	<path class="st0" d="M171.2,57.9H169v8.5h2.2c2.2,0,3.3-1.4,3.3-4.3C174.5,59.3,173.4,57.9,171.2,57.9z M172.7,64.1
		c-0.3,0.6-0.8,0.9-1.6,0.9h-0.7v-5.7h0.7c0.8,0,1.3,0.3,1.6,0.9c0.2,0.4,0.3,1.1,0.3,1.9C173,63,172.9,63.6,172.7,64.1z"/>
	<path class="st0" d="M179.9,62.5c0,0.9-0.1,1.5-0.2,1.9c-0.2,0.6-0.6,0.8-1.2,0.8c-0.6,0-1-0.3-1.2-0.8c-0.1-0.4-0.2-1-0.2-1.9
		v-4.6h-1.4v5.3c0,1.1,0.3,1.9,0.8,2.5c0.5,0.6,1.2,0.8,2,0.8c0.8,0,1.5-0.3,2-0.8c0.5-0.6,0.8-1.4,0.8-2.5v-5.3h-1.4V62.5z"/>
	<path class="st0" d="M185,59.1c0.4,0,0.7,0.2,0.9,0.5c0.2,0.3,0.3,0.7,0.3,1.2h1.5c0-1-0.3-1.8-0.8-2.3c-0.5-0.4-1.1-0.7-1.9-0.7
		c-0.9,0-1.6,0.4-2.1,1.3c-0.4,0.8-0.7,1.8-0.7,3.1c0,1.3,0.2,2.4,0.7,3.1c0.5,0.9,1.2,1.3,2.1,1.3c0.8,0,1.5-0.2,1.9-0.7
		c0.5-0.5,0.8-1.2,0.8-2.3h-1.5c0,0.5-0.1,0.9-0.3,1.1c-0.2,0.3-0.5,0.5-0.9,0.5c-0.4,0-0.8-0.4-1-1.1c-0.2-0.6-0.3-1.2-0.3-2
		c0-0.8,0.1-1.4,0.3-2C184.2,59.4,184.5,59.1,185,59.1z"/>
	<path class="st0" d="M190.4,57.9l-2.4,8.5h1.3l0.5-1.8h2.6l0.5,1.8h1.4l-2.3-8.5H190.4z M190.2,63.2l1-3.6h0l0.9,3.6H190.2z"/>
	<polygon class="st0" points="194.6,59.3 196.5,59.3 196.5,66.4 197.9,66.4 197.9,59.3 199.9,59.3 199.9,57.9 194.6,57.9 	"/>
	<rect x="200.5" y="57.9" class="st0" width="1.4" height="8.5"/>
	<path class="st0" d="M206,57.7c-1,0-1.8,0.4-2.4,1.3c-0.5,0.8-0.8,1.8-0.8,3.2c0,1.3,0.3,2.4,0.8,3.2c0.6,0.9,1.3,1.3,2.4,1.3
		c1,0,1.8-0.4,2.4-1.3c0.5-0.8,0.8-1.8,0.8-3.2c0-1.3-0.3-2.4-0.8-3.2C207.8,58.2,207,57.7,206,57.7z M206,65.3
		c-1.1,0-1.7-1-1.7-3.1c0-2.1,0.6-3.1,1.7-3.1c1.1,0,1.7,1,1.7,3.1C207.6,64.2,207.1,65.3,206,65.3z"/>
	<polygon class="st0" points="214.6,57.9 214.6,64.6 214.6,64.6 212.1,57.9 210,57.9 210,66.4 211.4,66.4 211.4,59.4 211.4,59.3 
		214,66.4 216,66.4 216,57.9 	"/>
</g>
</svg>
