<svg version="1.2" baseProfile="tiny-ps" xmlns="http://www.w3.org/2000/svg" viewBox="0 0 1308 454" width="464" height="161">
	<title>BEST Courses Logo-ai</title>
	<style>
		tspan { white-space:pre }
		.shp0 { fill: #f26c2a } 
		.shp1 { fill: #f5a37f } 
	</style>
	<g id="Vrstva 1">
		<g id="&lt;Group&gt;">
			<path id="&lt;Compound Path&gt;" fill-rule="evenodd" class="shp0" d="M552.8 190.66C552.8 215.85 533.07 230.43 495.27 230.43L420.9 230.43L420.9 84.68L491.16 84.68C527.11 84.68 545.6 99.88 545.6 122.58C545.6 137.15 538.21 148.39 526.5 154.64C542.52 159.85 552.8 172.34 552.8 190.66ZM453.97 110.08L453.97 144.44L487.05 144.44C503.28 144.44 512.12 138.61 512.12 127.16C512.12 115.7 503.28 110.08 487.05 110.08L453.97 110.08ZM519.31 187.12C519.31 174.83 510.06 169.01 492.81 169.01L453.97 169.01L453.97 205.02L492.81 205.02C510.06 205.02 519.31 199.61 519.31 187.12ZM682.51 203.35L682.51 230.42L571.16 230.42L571.16 84.67L679.84 84.67L679.84 111.74L604.24 111.74L604.24 143.39L671.01 143.39L671.01 169.62L604.24 169.62L604.24 203.35L682.51 203.35ZM712.06 190.66C724.18 199.61 742.26 205.86 759.52 205.86C779.24 205.86 787.25 199.19 787.25 190.24C787.25 162.97 703.64 181.7 703.64 127.57C703.64 102.79 723.36 82.18 764.24 82.18C782.33 82.18 800.81 86.56 814.17 95.09L803.9 120.7C790.54 113 776.78 109.25 764.04 109.25C744.32 109.25 736.71 116.74 736.71 125.9C736.71 152.76 820.33 134.23 820.33 187.74C820.33 212.1 800.4 232.92 759.32 232.92C736.51 232.92 713.5 226.05 700.76 216.06L712.06 190.66ZM877.1 112.16L831.08 112.16L831.08 84.68L956.41 84.68L956.41 112.16L910.39 112.16L910.39 230.42L877.1 230.42L877.1 112.16ZM476.27 257.59C497.41 257.59 514.27 266.45 522.6 283.13L503.1 294.66C496.59 284.16 486.84 279.42 476.07 279.42C457.38 279.42 443.15 292.6 443.15 313.81C443.15 335.23 457.38 348.2 476.07 348.2C486.84 348.2 496.59 343.47 503.1 332.96L522.6 344.5C514.27 360.97 497.41 370.24 476.27 370.24C441.93 370.24 417.55 346.76 417.55 313.81C417.55 280.86 441.93 257.59 476.27 257.59ZM537.08 313.81C537.08 280.86 561.46 257.59 594.79 257.59C628.52 257.59 652.7 280.86 652.7 313.81C652.7 346.76 628.52 370.24 594.79 370.24C561.46 370.24 537.08 346.76 537.08 313.81ZM627.1 313.81C627.1 292.81 613.28 279.42 594.79 279.42C576.5 279.42 562.68 292.81 562.68 313.81C562.68 334.82 576.5 348.2 594.79 348.2C613.28 348.2 627.1 334.82 627.1 313.81ZM781.98 258.82L781.98 368.79L757.8 368.79L757.8 354.79C749.67 364.88 736.87 370.23 722.85 370.23C695.01 370.23 676.11 354.79 676.11 321.63L676.11 258.82L701.51 258.82L701.51 318.13C701.51 338.11 710.86 347.58 726.91 347.58C744.59 347.58 756.58 336.46 756.58 314.42L756.58 258.82L781.98 258.82ZM877.11 282.09C874.87 281.68 873.05 281.47 871.22 281.47C851.91 281.47 839.72 293.01 839.72 315.45L839.72 368.79L814.32 368.79L814.32 258.82L838.5 258.82L838.5 274.89C845.81 263.35 859.02 257.59 877.11 257.59L877.11 282.09ZM900.43 338.32C909.97 344.7 924.61 349.23 938.22 349.23C954.28 349.23 960.98 344.7 960.98 337.08C960.98 316.08 893.92 335.85 893.92 291.98C893.92 271.18 912.41 257.59 941.68 257.59C956.1 257.59 972.56 261.09 982.32 267.07L972.56 286.63C962.2 280.45 951.84 278.39 941.47 278.39C926.03 278.39 918.71 283.54 918.71 290.75C918.71 312.99 985.77 293.22 985.77 336.26C985.77 356.85 967.08 370.24 936.59 370.24C918.51 370.24 900.43 364.89 890.67 357.88L900.43 338.32ZM1112.64 322.05L1027.5 322.05C1030.55 338.11 1043.76 348.41 1062.65 348.41C1074.85 348.41 1084.4 344.5 1092.12 336.47L1105.73 352.32C1095.98 364.06 1080.74 370.24 1062.05 370.24C1025.67 370.24 1002.1 346.56 1002.1 313.81C1002.1 281.07 1025.88 257.59 1058.19 257.59C1089.88 257.59 1113.05 280.04 1113.05 314.43C1113.05 316.49 1112.85 319.58 1112.64 322.05ZM1027.3 304.96L1088.87 304.96C1086.84 289.1 1074.85 278.19 1058.19 278.19C1041.73 278.19 1029.74 288.9 1027.3 304.96ZM1136.65 338.32C1146.2 344.7 1160.83 349.23 1174.44 349.23C1190.5 349.23 1197.2 344.7 1197.2 337.08C1197.2 316.08 1130.14 335.85 1130.14 291.98C1130.14 271.19 1148.64 257.6 1177.9 257.6C1192.33 257.6 1208.79 261.1 1218.54 267.07L1208.79 286.63C1198.42 280.45 1188.06 278.39 1177.69 278.39C1162.25 278.39 1154.94 283.54 1154.94 290.75C1154.94 312.99 1221.99 293.22 1221.99 336.26C1221.99 356.86 1203.3 370.24 1172.82 370.24C1154.73 370.24 1136.65 364.89 1126.89 357.88L1136.65 338.32ZM309.56 95.71C327.79 140.35 346.02 184.99 364.25 229.64C345.92 211.09 327.59 192.54 309.25 173.99C283.53 211.01 257.82 248.03 232.1 285.06L309.56 95.71Z" />
			<path id="&lt;Path&gt;" class="shp1" d="M167.24 368.79L283.44 84.77C217.36 112.48 151.29 140.19 85.21 167.9C124.07 167.95 162.93 168.01 201.78 168.07C190.27 234.98 178.75 301.89 167.24 368.79Z" />
		</g>
	</g>
</svg>