<svg version="1.2" baseProfile="tiny-ps" xmlns="http://www.w3.org/2000/svg" viewBox="0 0 1218 602" width="464" height="229">
	<title>EBEC_Local_short_name-ai</title>
	<style>
		tspan { white-space:pre }
		.shp0 { fill: #666666 } 
		.shp1 { fill: #eea225 } 
		.txt2 { font-size: 27px;fill: #eea225;font-weight: bold;font-family: "Tahoma" } 
	</style>
	<g id="Layer 1">
		<g id="&lt;Group&gt;">
			<path id="&lt;Path&gt;" class="shp0" d="M628.85 350.64C633.62 345.87 637.62 340.68 640.95 335.16L619.77 313.98C615.43 319.6 611.41 324.39 607.08 328.86C587.4 348.55 555.48 348.55 535.8 328.86C516.12 309.18 516.08 277.3 535.77 257.62C552.95 240.44 579.47 238.25 599.02 251.08L556.24 293.86L577.42 315.04L630.8 261.65L630.69 261.48L640.87 251.22C637.56 245.75 633.59 240.6 628.85 235.87C613.01 220.03 592.21 212.05 571.43 212.05C550.67 212.05 529.93 220.03 514.09 235.87C482.4 267.56 482.4 318.95 514.09 350.64C545.78 382.33 597.17 382.33 628.85 350.64Z" />
			<path id="&lt;Compound Path&gt;" class="shp1" d="M231.29 274.48C242.16 274.48 250.99 283.3 250.99 294.18C250.99 305.05 242.16 313.87 231.29 313.87C220.41 313.87 211.64 305.05 211.64 294.18C211.64 283.3 220.41 274.48 231.29 274.48ZM201.54 229.48L226.29 247.48L206.64 274.53L206.68 274.53C206.4 274.9 206.11 275.29 205.83 275.68C199.68 284.16 198.38 294.66 201.39 303.93C201.48 304.21 201.53 304.49 201.64 304.78C201.86 305.39 202.13 305.98 202.39 306.58C202.51 306.87 202.6 307.18 202.73 307.48C202.82 307.66 202.94 307.84 203.04 308.03C203.38 308.74 203.73 309.43 204.14 310.12L204.14 310.18C204.35 310.53 204.61 310.87 204.83 311.23C205.18 311.75 205.55 312.35 205.93 312.87C205.97 312.91 205.97 312.9 205.98 312.93C206.04 313.02 206.11 313.13 206.18 313.23C206.38 313.47 206.58 313.73 206.79 313.98L206.73 313.98L226.18 340.77L201.54 358.68C176.13 328.59 132.61 321.38 98.89 341.43C91.54 310.08 91.65 277.61 98.89 246.73C132.59 266.76 176.13 259.53 201.54 229.48Z" />
			<path id="&lt;Compound Path&gt;" class="shp1" d="M297.78 222.16C301.14 232.5 295.47 243.62 285.13 246.98C274.79 250.33 263.67 244.67 260.31 234.33C256.95 223.99 262.63 212.91 272.97 209.55C283.31 206.19 294.42 211.81 297.78 222.16ZM331.38 179.95L321.91 209.05L290.11 198.73L290.13 198.77C289.68 198.61 289.22 198.47 288.77 198.32C278.81 195.08 268.41 197.1 260.53 202.82C260.29 203 260.04 203.13 259.8 203.32C259.29 203.72 258.81 204.16 258.32 204.58C258.08 204.8 257.81 204.98 257.58 205.2C257.42 205.33 257.29 205.51 257.14 205.66C256.57 206.2 256.02 206.75 255.48 207.35L255.43 207.37C255.16 207.68 254.92 208.03 254.65 208.35C254.25 208.85 253.8 209.39 253.43 209.91C253.41 209.95 253.41 209.95 253.4 209.98C253.33 210.06 253.24 210.16 253.17 210.25C253 210.52 252.82 210.79 252.64 211.05L252.63 211.01L233.15 237.79L208.5 219.88C229.27 186.42 222.68 142.8 193.19 116.92C220.73 100.25 251.65 90.33 283.25 87.66C274.61 125.91 294.95 165.08 331.39 179.95L331.38 179.95Z" />
			<path id="&lt;Compound Path&gt;" fill-rule="evenodd" class="shp1" d="M418.61 288.15L388 288.13L388 254.69L387.96 254.73C387.98 254.25 387.97 253.77 387.97 253.3C387.97 242.82 382.84 233.55 374.97 227.83C374.72 227.65 374.52 227.45 374.26 227.28C373.73 226.91 373.16 226.6 372.6 226.27C372.33 226.1 372.08 225.91 371.79 225.75C371.61 225.65 371.4 225.57 371.22 225.48C370.52 225.1 369.84 224.75 369.1 224.43L369.07 224.38C368.69 224.22 368.28 224.1 367.89 223.94C367.29 223.72 366.64 223.46 366.03 223.25C365.98 223.25 365.99 223.25 365.96 223.25C365.85 223.21 365.73 223.16 365.62 223.12C365.32 223.04 365 222.95 364.69 222.87L364.73 222.84L333.25 212.59L342.67 183.62C380.9 193.03 420.35 173.28 435.85 137.24C460.21 158.28 479.22 184.62 491.51 213.85C452.47 217.45 421.5 248.9 418.61 288.15ZM368.08 269.23C359.29 275.62 346.96 273.66 340.57 264.87C334.18 256.07 336.13 243.74 344.93 237.35C353.72 230.96 366.01 232.94 372.4 241.74C378.79 250.54 376.88 262.83 368.08 269.23Z" />
			<path id="&lt;Compound Path&gt;" fill-rule="evenodd" class="shp1" d="M342.66 404.53L333.22 375.42L365.02 365.08L364.98 365.06C365.43 364.93 365.89 364.77 366.34 364.63C376.31 361.39 383.54 353.65 386.55 344.39C386.64 344.1 386.76 343.85 386.85 343.55C387.03 342.93 387.15 342.3 387.29 341.66C387.37 341.34 387.48 341.05 387.54 340.73C387.58 340.53 387.59 340.3 387.62 340.1C387.76 339.32 387.89 338.56 387.97 337.75L388 337.72C388.04 337.3 388.02 336.87 388.04 336.45C388.08 335.82 388.13 335.12 388.13 334.48C388.11 334.44 388.11 334.44 388.11 334.41C388.12 334.3 388.14 334.16 388.13 334.05C388.11 333.73 388.11 333.41 388.09 333.08L388.13 333.12L388.15 300L418.61 300C421.47 339.27 452.45 370.69 491.51 374.3C479.03 403.97 459.86 430.18 435.85 450.91C420.36 414.89 380.89 395.16 342.67 404.53L342.66 404.53ZM345.04 350.64C336.25 344.25 334.29 331.92 340.69 323.12C347.08 314.33 359.41 312.37 368.21 318.76C377 325.16 378.91 337.45 372.52 346.25C366.13 355.05 353.84 357.03 345.04 350.64Z" />
			<path id="&lt;Compound Path&gt;" class="shp1" d="M260.5 353.88C263.86 343.55 274.98 337.87 285.33 341.23C295.66 344.59 301.33 355.72 297.97 366.06C294.61 376.4 283.5 382.01 273.16 378.66C262.83 375.3 257.14 364.23 260.5 353.88ZM208.5 368.27L233.28 350.3L252.93 377.34L252.94 377.3C253.21 377.69 253.5 378.08 253.78 378.46C259.93 386.94 269.54 391.41 279.27 391.42C279.57 391.42 279.85 391.46 280.15 391.44C280.8 391.43 281.45 391.35 282.1 391.29C282.42 391.26 282.74 391.27 283.06 391.23C283.26 391.22 283.47 391.15 283.68 391.12C284.47 391.01 285.22 390.9 286.01 390.73L286.06 390.74C286.47 390.65 286.87 390.5 287.28 390.4C287.89 390.23 288.58 390.06 289.18 389.86C289.22 389.83 289.22 389.83 289.25 389.83C289.36 389.8 289.48 389.77 289.59 389.73C289.89 389.62 290.19 389.5 290.49 389.4L290.48 389.44L321.97 379.23L331.38 408.19C294.93 423.06 274.61 462.23 283.25 500.49C251.18 497.79 220.33 487.66 193.19 471.23C222.66 445.37 229.24 401.73 208.5 368.27Z" />
			<path id="&lt;Path&gt;" class="shp0" d="M648 112.61L648 289C647.93 290.39 647.91 291.75 647.91 293.16C647.91 294.37 647.95 295.6 648 296.81C649.9 339.94 685.45 374.31 729.05 374.31C773.86 374.31 810.2 337.98 810.2 293.16C810.2 248.34 773.86 212 729.05 212C722.28 212 715.73 212.84 709.45 214.41L709.45 244.25C716.52 243.33 722.48 242.83 729.05 242.75C756.89 242.75 779.45 265.32 779.45 293.16C779.45 320.99 756.89 343.56 729.05 343.56C702.44 343.56 680.67 322.94 678.8 296.81L678.8 289.31C678.82 289.14 678.84 288.98 678.85 288.81L678.85 229.46C678.84 229.48 678.82 229.49 678.8 229.5L678.8 112.61L648 112.61Z" />
			<path id="&lt;Path&gt;" class="shp0" d="M1108.47 235.83C1113.19 240.55 1117.17 245.7 1120.49 251.17L1110.31 261.43L1110.42 261.53L1099.64 272.31C1096.1 267.67 1092.18 263.09 1087.86 258.7C1078.68 248.79 1065.59 242.62 1050.99 242.62C1023.16 242.62 1000.57 265.19 1000.57 293.03C1000.57 298.09 1001.34 302.96 1002.73 307.56C1002.96 308.33 1003.2 309.11 1003.47 309.86C1003.67 310.42 1003.85 310.98 1004.07 311.52C1004.16 311.74 1004.2 311.94 1004.28 312.16C1004.35 312.31 1004.47 312.47 1004.53 312.62C1004.78 313.23 1005.03 313.79 1005.31 314.39C1005.37 314.54 1005.45 314.73 1005.52 314.88C1005.8 315.48 1006.1 316.03 1006.41 316.62C1006.65 317.07 1006.92 317.51 1007.18 317.96C1007.41 318.36 1007.66 318.76 1007.89 319.16C1008.28 319.8 1008.67 320.44 1009.09 321.07C1009.18 321.21 1009.25 321.32 1009.34 321.46C1009.68 321.97 1010.03 322.51 1010.41 323.01C1010.43 323.08 1010.51 323.09 1010.54 323.16C1011.5 324.44 1012.53 325.73 1013.62 326.94C1014.16 327.52 1014.75 328.07 1015.32 328.63C1015.36 328.68 1015.38 328.77 1015.42 328.81C1035.1 348.48 1066.98 348.49 1086.67 328.84C1091.32 324.07 1095.98 318.62 1099.47 313.93L1120.58 335.03C1117.25 340.55 1113.22 345.79 1108.45 350.55C1076.76 382.24 1025.41 382.28 993.73 350.59C962.03 318.9 962.03 267.51 993.73 235.83C1009.57 219.98 1030.29 212 1051.07 212C1071.84 212 1092.64 219.98 1108.48 235.83L1108.47 235.83Z" />
			<path id="&lt;Path&gt;" class="shp0" d="M958.59 350.57C963.35 345.8 967.35 340.61 970.67 335.08L949.5 313.91C945.17 319.53 941.15 324.32 936.81 328.8C917.13 348.48 885.22 348.48 865.53 328.8C845.85 309.11 845.82 277.23 865.5 257.55C882.68 240.37 909.2 238.19 928.75 251.01L885.98 293.79L907.16 314.97L960.53 261.58L960.42 261.41L970.6 251.16C967.29 245.68 963.31 240.53 958.59 235.81C942.74 219.96 921.93 211.98 901.17 211.98C880.41 211.98 859.67 219.96 843.83 235.8C812.14 267.5 812.14 318.88 843.83 350.57C875.51 382.25 926.9 382.25 958.59 350.57Z" />
			<text id="IZMIR" style="transform: matrix(2,0,0,2,926.75,427.678)" >
				<tspan x="0" y="0" class="txt2">I</tspan><tspan  y="0" class="txt2">Z</tspan><tspan  y="0" class="txt2">M</tspan><tspan  y="0" class="txt2">I</tspan><tspan  y="0" class="txt2">R
</tspan>
			</text>
		</g>
	</g>
</svg>