<?xml version="1.0" encoding="UTF-8"?>
<!DOCTYPE svg PUBLIC "-//W3C//DTD SVG 1.1//EN" "http://www.w3.org/Graphics/SVG/1.1/DTD/svg11.dtd">
<!-- Creator: CorelDRAW 2019 (64-Bit) -->
<svg xmlns="http://www.w3.org/2000/svg" xml:space="preserve" width="105mm" height="42.484mm" version="1.1" style="shape-rendering:geometricPrecision; text-rendering:geometricPrecision; image-rendering:optimizeQuality; fill-rule:evenodd; clip-rule:evenodd"
viewBox="0 0 10500 4248.4"
 xmlns:xlink="http://www.w3.org/1999/xlink"
 xmlns:xodm="http://www.corel.com/coreldraw/odm/2003">
 <defs>
  <style type="text/css">
   <![CDATA[
    .fil1 {fill:#0C1D24}
    .fil0 {fill:#0C1D24;fill-rule:nonzero}
    .fil3 {fill:#138BCD;fill-rule:nonzero}
    .fil2 {fill:#6DB7F2;fill-rule:nonzero}
   ]]>
  </style>
 </defs>
 <g id="Layer_x0020_1">
  <metadata id="CorelCorpID_0Corel-Layer"/>
  <g id="_2269801026160">
   <path class="fil0" d="M759.02 1084.94l-516.83 1222.7 353.81 0 86.72 -216.8 468.28 0 88.41 216.8 360.74 0 -516.83 -1222.7 -324.3 0zm159.59 400.6l135.27 345.19 -272.28 0 137.01 -345.19z"/>
   <polygon class="fil0" points="242.23,2717.5 242.23,2926.24 474.38,2926.24 648.75,2926.24 664.28,2926.24 664.28,3999.27 891.32,3999.27 891.32,2926.24 1059.08,2926.24 1313.31,2926.24 1313.31,2717.5 "/>
   <polygon class="fil1" points="1805.06,1093.62 2788.38,1093.62 2788.38,1379.8 2136.35,1379.8 2136.35,1563.6 2719.05,1563.6 2719.05,1829 2136.35,1829 2136.35,2021.48 2788.38,2021.48 2788.38,2307.66 1805.06,2307.66 "/>
   <polygon class="fil1" points="2984.64,1093.62 3340.18,1093.62 3629.79,1563.6 3919.39,1093.62 4274.95,1093.62 4274.95,2307.66 3940.25,2307.66 3940.25,1610.46 3630.67,2085.67 3623.74,2085.67 3315.92,1613.95 3315.92,2307.66 2984.64,2307.66 "/>
   <polygon class="fil0" points="1518.23,2717.5 1518.23,3999.27 2475.88,3999.27 2475.88,3796 1741.64,3796 1741.64,3453.62 2384.36,3453.62 2384.36,3250.35 1741.64,3250.35 1741.64,2920.76 2466.71,2920.76 2466.71,2717.5 "/>
   <polygon class="fil0" points="3603.67,2717.5 3283.25,3177.12 2964.57,2717.5 2699.1,2717.5 3147.73,3347.37 2680.76,3999.27 2938.98,3999.27 3277.7,3514.01 3614.65,3999.27 3880.17,3999.27 3415.07,3343.74 3861.83,2717.5 "/>
   <polygon class="fil0" points="4085.05,2717.5 4085.05,2926.24 4491.57,2926.24 4491.57,3999.27 4718.66,3999.27 4718.66,2926.24 5125.11,2926.24 5125.11,2717.5 "/>
   <polygon class="fil0" points="5329.96,3999.3 5553.37,3999.3 5553.37,2717.54 5329.96,2717.54 "/>
   <polygon class="fil0" points="5758.3,2717.5 5758.3,3999.27 6655.56,3999.27 6655.56,3796 5981.65,3796 5981.65,2717.5 "/>
   <polygon class="fil0" points="6860.46,2717.5 6860.46,3999.27 7804.76,3999.27 7804.76,3796 7083.8,3796 7083.8,3453.62 7726.53,3453.62 7726.53,3250.35 7083.8,3250.35 7083.8,2920.76 7804.76,2920.76 7804.76,2717.5 "/>
   <path class="fil2" d="M6357.13 250.96l-1855.18 2056.7 670.17 0 1478.79 -1639.39 -293.78 -417.31zm-526.87 2056.7l658.2 0 739.37 -819.73 -288.49 -409.83 -1109.08 1229.56zm1316.4 0l658.19 0 -288.47 -409.83 -369.72 409.83z"/>
   <path class="fil3" d="M9572.03 1078.04l-1478.74 1639.45 293.73 417.31 1855.18 -2056.76 -670.17 0zm-1316.34 0l-739.37 819.79 288.43 409.76 1109.09 -1229.55 -658.15 0zm-1316.32 0l288.48 409.89 369.72 -409.89 -658.2 0z"/>
  </g>
 </g>
</svg>
